# xmcd
#
# Track frame offsets:
#	150
#	11006
#	22457
#	34184
#	59800
#	75856
#	86988
#	102097
#	118268
#	134747
#	163203
#	176263
#	202560
#	221294
#	235259
#	250481
#
# Disc length: 3566 seconds
#
# Revision: 1
# Processed by: cddbd v1.4PL0 Copyright (c) Steve Scherf et al.
# Submitted via: audiograbber 1.81.03
#
DISCID=e00dec10
DTITLE=Various Artist - Love Songs Ballads [CD1)
DYEAR=2002
DGENRE=Ballad
TTITLE0=The Platters - Smoke Get In Your Eyes
TTITLE1=The Drifters - Save The Last Dance With Me
TTITLE2=The Platters - Only You
TTITLE3=Kool and The Gang - Cherish
TTITLE4=Baccara - Sorry I'm A Lady
TTITLE5=Timi Yuro - Hurt
TTITLE6=Gary Pucket - Young Girl
TTITLE7=Harold Melvin &The Blue Notes - If You Don't Know Me
TTITLE8=The Tremolos - Silence Is Golden
TTITLE9=Aretha Franklin - Stay
TTITLE10=Claudia Barry - That More
TTITLE11=Stanfield and Brown - You Sexy Thing
TTITLE12=Howard Keel - And I Love You So
TTITLE13=Jose Feliciano - Light My Fire
TTITLE14=Dobie Gray - Feeling
TTITLE15=Brook Benton - Rainy Night In Georgia
EXTD=
EXTT0=
EXTT1=
EXTT2=
EXTT3=
EXTT4=
EXTT5=
EXTT6=
EXTT7=
EXTT8=
EXTT9=
EXTT10=
EXTT11=
EXTT12=
EXTT13=
EXTT14=
EXTT15=
PLAYORDER=
